<svg width="64" height="64" viewBox="0 0 64 64" fill="none" xmlns="http://www.w3.org/2000/svg">
  <title>Grounded Living favicon</title>
  <rect width="64" height="64" rx="16" fill="#FAF7F2"/>
  <circle cx="32" cy="24" r="16" fill="#5B7F6B"/>
  <path d="M32 12c-5.52 4.48-9 10.96-9 17.92 0 8.64 5.76 15.2 9 19.08 3.24-3.88 9-10.44 9-19.08 0-6.96-3.48-13.44-9-17.92z" fill="#C58A2F" opacity="0.75"/>
  <path d="M32 18c-3.6 2.8-5.8 6.64-5.8 10.88 0 4.96 3.2 8.72 5.8 11.36 2.6-2.64 5.8-6.4 5.8-11.36C37.8 24.64 35.6 20.8 32 18z" fill="#FAF7F2"/>
</svg>
