<svg width="1200" height="630" viewBox="0 0 1200 630" fill="none" xmlns="http://www.w3.org/2000/svg">
  <title>Grounded Living OG template</title>
  <defs>
    <linearGradient id="bg" x1="0" y1="0" x2="1200" y2="630" gradientUnits="userSpaceOnUse">
      <stop offset="0%" stop-color="#FAF7F2"/>
      <stop offset="60%" stop-color="#F3D197" stop-opacity="0.35"/>
      <stop offset="100%" stop-color="#E3CCB6" stop-opacity="0.6"/>
    </linearGradient>
  </defs>
  <rect width="1200" height="630" fill="url(#bg)"/>
  <rect x="80" y="80" width="1040" height="470" rx="32" fill="#FFFFFF" opacity="0.85"/>
  <rect x="80" y="80" width="1040" height="470" rx="32" stroke="rgba(19,34,30,0.08)" stroke-width="2"/>
  <text x="120" y="188" font-family="'Fraunces', 'Times New Roman', serif" font-weight="600" font-size="72" fill="#13221E" letter-spacing="-0.02em">
    {{TITLE}}
  </text>
  <text x="120" y="262" font-family="'Inter', 'Segoe UI', sans-serif" font-weight="500" font-size="36" fill="#5B7F6B" letter-spacing="0.08em">
    {{SUBTITLE}}
  </text>
  <rect x="120" y="310" width="960" height="4" fill="#C58A2F" rx="2"/>
  <text x="120" y="384" font-family="'Inter', 'Segoe UI', sans-serif" font-weight="400" font-size="24" fill="#13221E" opacity="0.7">
    Add up to 160 characters of supporting copy in this region.
  </text>
  <g transform="translate(120,420)">
    <rect width="160" height="80" rx="16" fill="#5B7F6B" opacity="0.1"/>
    <text x="16" y="48" font-family="'Inter', 'Segoe UI', sans-serif" font-size="24" font-weight="600" fill="#5B7F6B">Grounded Living</text>
  </g>
  <g transform="translate(900,420)">
    <circle cx="60" cy="40" r="36" fill="#5B7F6B"/>
    <path d="M60 20c-8 6.4-13 15.68-13 25.6 0 12.32 8.32 21.76 13 27.36 4.68-5.6 13-15.04 13-27.36C73 35.68 68 26.4 60 20z" fill="#C58A2F" opacity="0.7"/>
    <path d="M60 28c-5.2 4-8.4 9.52-8.4 15.6 0 6.96 4.64 12.16 8.4 15.84 3.76-3.68 8.4-8.88 8.4-15.84C68.4 37.52 65.2 32 60 28z" fill="#FAF7F2"/>
  </g>
  <text x="120" y="520" font-family="'Inter', 'Segoe UI', sans-serif" font-size="20" fill="#5F554C" letter-spacing="0.18em">
    groundedliving.org
  </text>
</svg>
