<svg width="1500" height="500" viewBox="0 0 1500 500" fill="none" xmlns="http://www.w3.org/2000/svg">
  <title>Grounded Living social banner template</title>
  <defs>
    <linearGradient id="banner-bg" x1="0" y1="0" x2="1500" y2="500" gradientUnits="userSpaceOnUse">
      <stop offset="0%" stop-color="#FDFBF9"/>
      <stop offset="40%" stop-color="#F2E4D8" stop-opacity="0.75"/>
      <stop offset="100%" stop-color="#BDD6C6" stop-opacity="0.65"/>
    </linearGradient>
    <clipPath id="safe-area">
      <rect x="80" y="80" width="1340" height="340" rx="28"/>
    </clipPath>
  </defs>
  <rect width="1500" height="500" fill="url(#banner-bg)"/>
  <g clip-path="url(#safe-area)">
    <rect x="80" y="80" width="1340" height="340" rx="28" fill="#FFFFFF" opacity="0.88"/>
    <rect x="80" y="80" width="1340" height="340" rx="28" stroke="rgba(19,34,30,0.08)" stroke-width="2"/>
    <text x="140" y="200" font-family="'Fraunces', 'Times New Roman', serif" font-size="88" font-weight="600" fill="#13221E" letter-spacing="-0.03em">
      {{CAMPAIGN_TITLE}}
    </text>
    <text x="140" y="268" font-family="'Inter', 'Segoe UI', sans-serif" font-size="40" font-weight="500" fill="#5B7F6B" letter-spacing="0.08em">
      {{TAGLINE_OR_DATE}}
    </text>
    <rect x="140" y="300" width="320" height="4" fill="#C58A2F" rx="2"/>
    <text x="140" y="360" font-family="'Inter', 'Segoe UI', sans-serif" font-size="26" font-weight="400" fill="#3D574A" opacity="0.85">
      Optional supporting copy up to 120 characters.
    </text>
    <g transform="translate(1150,160)">
      <circle cx="75" cy="90" r="68" fill="#5B7F6B"/>
      <path d="M75 42c-11.6 9.2-19 22.4-19 36.6 0 17.6 12.16 31.04 19 39.04 6.84-8 19-21.44 19-39.04C94 64.4 86.6 51.2 75 42z" fill="#C58A2F" opacity="0.7"/>
      <path d="M75 54c-7.52 5.76-12.1 13.68-12.1 22.4 0 9.84 6.68 17.2 12.1 22.4 5.42-5.2 12.1-12.56 12.1-22.4C87.1 67.68 82.52 59.76 75 54z" fill="#FAF7F2"/>
    </g>
  </g>
  <text x="80" y="460" font-family="'Inter', 'Segoe UI', sans-serif" font-size="22" fill="#5F554C" letter-spacing="0.2em">
    groundedliving.org • holistic recipes & ritual
  </text>
</svg>
