<svg xmlns="http://www.w3.org/2000/svg" width="1200" height="960" viewBox="0 0 1200 960" role="img" aria-labelledby="title desc">
  <title id="title">Clarity Breath Steam Kit illustration</title>
  <desc id="desc">Illustrated steaming bowl with herbs and soft vapor lines.</desc>
  <defs>
    <linearGradient id="bg" x1="0" y1="0" x2="1" y2="1">
      <stop offset="0%" stop-color="#eef7f6" />
      <stop offset="100%" stop-color="#f7f0f7" />
    </linearGradient>
    <linearGradient id="bowl" x1="0" y1="0" x2="0" y2="1">
      <stop offset="0%" stop-color="#9fb8c4" />
      <stop offset="100%" stop-color="#678da0" />
    </linearGradient>
  </defs>
  <rect width="1200" height="960" fill="url(#bg)" rx="60" />
  <g transform="translate(320 200)">
    <ellipse cx="300" cy="520" rx="260" ry="70" fill="#d9e6eb" />
    <path d="M120 360h360l-40 120c-12 36-60 64-140 64s-128-28-140-64z" fill="url(#bowl)" />
    <ellipse cx="300" cy="360" rx="180" ry="46" fill="#c1d5de" />
    <g stroke="#d2c4dc" stroke-width="10" stroke-linecap="round" fill="none">
      <path d="M220 220c-30-80 40-120 10-200" />
      <path d="M300 220c-20-70 50-100 10-180" />
      <path d="M380 220c-25-90 40-120 8-200" />
    </g>
    <g fill="#8db59c" opacity="0.9">
      <circle cx="160" cy="360" r="18" />
      <circle cx="440" cy="360" r="16" />
      <circle cx="220" cy="390" r="12" />
      <circle cx="380" cy="395" r="14" />
    </g>
  </g>
</svg>
