<svg xmlns="http://www.w3.org/2000/svg" width="1200" height="960" viewBox="0 0 1200 960" role="img" aria-labelledby="title desc">
  <title id="title">Solstice Soothe Syrup bottle illustration</title>
  <desc id="desc">Illustrated amber bottle with botanicals to represent the Solstice Soothe elderberry syrup.</desc>
  <defs>
    <linearGradient id="bg" x1="0" y1="0" x2="1" y2="1">
      <stop offset="0%" stop-color="#f9efe5" />
      <stop offset="100%" stop-color="#f2f7f3" />
    </linearGradient>
    <linearGradient id="bottle" x1="0.5" y1="0" x2="0.5" y2="1">
      <stop offset="0%" stop-color="#8c3b2a" />
      <stop offset="100%" stop-color="#c36234" />
    </linearGradient>
  </defs>
  <rect width="1200" height="960" fill="url(#bg)" rx="60" />
  <g transform="translate(370 150)">
    <ellipse cx="230" cy="690" rx="220" ry="60" fill="#d9e4dd" />
    <g>
      <rect x="200" y="120" width="60" height="90" rx="14" fill="#442b20" />
      <rect x="160" y="180" width="140" height="420" rx="70" fill="url(#bottle)" />
      <rect x="185" y="240" width="90" height="160" rx="30" fill="#fdf2d8" opacity="0.85" />
      <text x="230" y="360" text-anchor="middle" font-family="'Inter', sans-serif" font-size="42" fill="#4d2a1b">Solstice</text>
      <text x="230" y="405" text-anchor="middle" font-family="'Inter', sans-serif" font-size="22" fill="#4d2a1b">Soothe Syrup</text>
    </g>
    <g fill="#56705b" opacity="0.8">
      <path d="M40 620c80-120 160-120 220-40" stroke="#5c7a60" stroke-width="8" fill="none" stroke-linecap="round" />
      <circle cx="36" cy="628" r="18" />
      <circle cx="94" cy="584" r="12" />
      <circle cx="150" cy="552" r="14" />
    </g>
    <g fill="#caa65a" opacity="0.8">
      <circle cx="360" cy="620" r="22" />
      <circle cx="412" cy="600" r="16" />
      <circle cx="448" cy="650" r="10" />
    </g>
  </g>
</svg>
